<?xml version="1.0" encoding="utf-8"?>
<!-- Generator: Adobe Illustrator 27.4.0, SVG Export Plug-In . SVG Version: 6.00 Build 0)  -->
<svg version="1.1" id="Layer_1" xmlns="http://www.w3.org/2000/svg" xmlns:xlink="http://www.w3.org/1999/xlink" x="0px" y="0px"
	 viewBox="0 0 500 500" style="enable-background:new 0 0 500 500;" xml:space="preserve">
<style type="text/css">
	.st0{fill:#041F2B;}
	.st1{clip-path:url(#SVGID_00000110470871730405970880000000551194174855954834_);}
	.st2{clip-path:url(#SVGID_00000143609708660626055480000004618134703639232411_);}
	.st3{fill:#146C94;}
	.st4{clip-path:url(#SVGID_00000009564874030639769300000004083064188369340292_);}
	.st5{clip-path:url(#SVGID_00000011750299324680516210000006469213184494546313_);}
	.st6{fill:#CFD9E1;}
	.st7{clip-path:url(#SVGID_00000173880146201063819730000017285561121489931953_);}
	.st8{clip-path:url(#SVGID_00000117650579210680886630000005666243794518108812_);}
	.st9{clip-path:url(#SVGID_00000047032633136832412410000003652475400814301112_);}
	.st10{clip-path:url(#SVGID_00000101081607060292704720000006151871104868004273_);}
	.st11{clip-path:url(#SVGID_00000098219322946017484720000006846694992771090573_);}
	.st12{clip-path:url(#SVGID_00000063623258101731873860000001538287978218136212_);}
	.st13{clip-path:url(#SVGID_00000070815217995691655640000008355185879411526329_);}
	.st14{clip-path:url(#SVGID_00000026131919103874459530000004825551709585699725_);}
	.st15{clip-path:url(#SVGID_00000096041159309400524000000009204598850895357869_);}
	.st16{clip-path:url(#SVGID_00000020357320178112022220000004249505408081357224_);}
	.st17{clip-path:url(#SVGID_00000102514787189376712330000008246114352223827126_);}
	.st18{clip-path:url(#SVGID_00000127043532597052797380000003187236893564845445_);}
	.st19{clip-path:url(#SVGID_00000019664951605408294800000005279597036124458676_);}
	.st20{clip-path:url(#SVGID_00000129901348929328797840000014588417278311610519_);}
</style>
<path class="st0" d="M100,0h300c55.2,0,100,44.8,100,100v300c0,55.2-44.8,100-100,100H100C44.8,500,0,455.2,0,400V100
	C0,44.8,44.8,0,100,0z"/>
<g>
	<defs>
		<rect id="SVGID_1_" x="38.5" y="38.6" width="416" height="395"/>
	</defs>
	<clipPath id="SVGID_00000049902011917803649780000003367368086274917555_">
		<use xlink:href="#SVGID_1_"  style="overflow:visible;"/>
	</clipPath>
	<g style="clip-path:url(#SVGID_00000049902011917803649780000003367368086274917555_);">
		<g>
			<defs>
				<path id="SVGID_00000127044823899318502650000005845170957020631229_" d="M356.5,96.3c42.6,59.7,72.5,113.3,89.8,160.9
					s8.1,89.6-27.6,126.2c-35.7,36.5-76.8,80-123.2,76.3c-46.5-3.7-104.1-45.4-172.9-71.1c-68.8-25.7-95.3-79-79.8-159.9
					c15.6-80.9,61.1-138,136.5-171.6C254.9,23.6,313.9,36.7,356.5,96.3z"/>
			</defs>
			<clipPath id="SVGID_00000052819964153089488640000006504794955380958365_">
				<use xlink:href="#SVGID_00000127044823899318502650000005845170957020631229_"  style="overflow:visible;"/>
			</clipPath>
			<g style="clip-path:url(#SVGID_00000052819964153089488640000006504794955380958365_);">
				<path class="st3" d="M356.5,96.3c42.6,59.7,72.5,113.3,89.8,160.9s8.1,89.6-27.6,126.2c-35.7,36.5-76.8,80-123.2,76.3
					c-46.5-3.7-104.1-45.4-172.9-71.1c-68.8-25.7-95.3-79-79.8-159.9c15.6-80.9,61.1-138,136.5-171.6
					C254.9,23.6,313.9,36.7,356.5,96.3z"/>
			</g>
		</g>
	</g>
</g>
<g>
	<defs>
		<rect id="SVGID_00000023241563835593756820000005150944921466830235_" x="59.6" y="83.7" width="376" height="383.7"/>
	</defs>
	<clipPath id="SVGID_00000127725154657113814290000017126167543404694183_">
		<use xlink:href="#SVGID_00000023241563835593756820000005150944921466830235_"  style="overflow:visible;"/>
	</clipPath>
	<g style="clip-path:url(#SVGID_00000127725154657113814290000017126167543404694183_);">
		<g>
			<defs>
				<path id="SVGID_00000118379289480989859140000004196023300480676483_" d="M346.7,135.9c38.5,53.9,65.5,102.3,81.1,145.3
					c15.6,43,7.3,80.9-24.9,113.9c-32.2,33-69.3,74.8-111.3,71.5c-42-3.3-94-43.6-156.1-66.8c-62.1-23.2-86.1-71.4-72-144.4
					c14.1-73,55.2-124.7,123.3-154.9C255,70.2,308.3,82,346.7,135.9z"/>
			</defs>
			<clipPath id="SVGID_00000093154954382114647130000005216027860242769024_">
				<use xlink:href="#SVGID_00000118379289480989859140000004196023300480676483_"  style="overflow:visible;"/>
			</clipPath>
			<g style="clip-path:url(#SVGID_00000093154954382114647130000005216027860242769024_);">
				<path class="st6" d="M346.7,135.9c38.5,53.9,65.5,102.3,81.1,145.3c15.6,43,7.3,80.9-24.9,113.9c-32.2,33-69.3,74.8-111.3,71.5
					c-42-3.3-94-43.6-156.1-66.8c-62.1-23.2-86.1-71.4-72-144.4c14.1-73,55.2-124.7,123.3-154.9C255,70.2,308.3,82,346.7,135.9z"/>
			</g>
		</g>
	</g>
</g>
<path class="st0" d="M328.6,262.1v5l-23.6,9v-5L328.6,262.1z"/>
<g>
	<defs>
		<rect id="SVGID_00000098203369554618457430000010983467246023854512_" x="338.7" y="261" width="48.3" height="25.3"/>
	</defs>
	<clipPath id="SVGID_00000165195427269930917010000006306188615820721280_">
		<use xlink:href="#SVGID_00000098203369554618457430000010983467246023854512_"  style="overflow:visible;"/>
	</clipPath>
	<g style="clip-path:url(#SVGID_00000165195427269930917010000006306188615820721280_);">
		<path class="st0" d="M387.1,280.3v5l-47.7-18.2v-5L387.1,280.3z"/>
	</g>
</g>
<g>
	<defs>
		<rect id="SVGID_00000147939113987142831450000001218145617076679564_" x="245.3" y="126.9" width="49.3" height="47.4"/>
	</defs>
	<clipPath id="SVGID_00000159462539185897711850000012595858166281186724_">
		<use xlink:href="#SVGID_00000147939113987142831450000001218145617076679564_"  style="overflow:visible;"/>
	</clipPath>
	<g style="clip-path:url(#SVGID_00000159462539185897711850000012595858166281186724_);">
		<path class="st0" d="M294.3,158.2v15.2l-47.7-31v-15.2L294.3,158.2z"/>
	</g>
</g>
<g>
	<defs>
		<rect id="SVGID_00000164499089554458747880000012936471251796422550_" x="188" y="126.9" width="48" height="47.4"/>
	</defs>
	<clipPath id="SVGID_00000062157289963012125370000010621942427324887723_">
		<use xlink:href="#SVGID_00000164499089554458747880000012936471251796422550_"  style="overflow:visible;"/>
	</clipPath>
	<g style="clip-path:url(#SVGID_00000062157289963012125370000010621942427324887723_);">
		<path class="st0" d="M235.8,127.2v15.2l-47.7,31v-15.2L235.8,127.2z"/>
	</g>
</g>
<path class="st0" d="M177.4,228.8v8.3l-21-9.8V219L177.4,228.8z"/>
<g>
	<defs>
		<rect id="SVGID_00000133520723869647920440000017309329919879788217_" x="98" y="218.3" width="48.7" height="32"/>
	</defs>
	<clipPath id="SVGID_00000152237914736922352260000000427545186389696702_">
		<use xlink:href="#SVGID_00000133520723869647920440000017309329919879788217_"  style="overflow:visible;"/>
	</clipPath>
	<g style="clip-path:url(#SVGID_00000152237914736922352260000000427545186389696702_);">
		<path class="st0" d="M145.7,219v8.3L98,249.6v-8.3L145.7,219z"/>
	</g>
</g>
<g>
	<defs>
		<rect id="SVGID_00000083086800486462462500000004507549625103170725_" x="98" y="238.3" width="48.7" height="232.6"/>
	</defs>
	<clipPath id="SVGID_00000085954828647128993120000017728907854971738031_">
		<use xlink:href="#SVGID_00000083086800486462462500000004507549625103170725_"  style="overflow:visible;"/>
	</clipPath>
	<g style="clip-path:url(#SVGID_00000085954828647128993120000017728907854971738031_);">
		<path class="st0" d="M98,261.4V471h47.7V239.2L98,261.4z M118.7,335.3H108v-10.7h10.7V335.3z M138.8,276.1h-10.7v-10.7h10.7V276.1
			z"/>
	</g>
</g>
<g>
	<defs>
		<rect id="SVGID_00000124858159900021167540000008735297112750074812_" x="156" y="238.3" width="22.7" height="232.6"/>
	</defs>
	<clipPath id="SVGID_00000127039099835884492370000006019142121034716827_">
		<use xlink:href="#SVGID_00000124858159900021167540000008735297112750074812_"  style="overflow:visible;"/>
	</clipPath>
	<g style="clip-path:url(#SVGID_00000127039099835884492370000006019142121034716827_);">
		<path class="st0" d="M177.4,249v222h-21V239.2L177.4,249z"/>
	</g>
</g>
<g>
	<defs>
		<rect id="SVGID_00000006678674624582816230000003778456474233156245_" x="188" y="154.3" width="48" height="316.6"/>
	</defs>
	<clipPath id="SVGID_00000057106166494161102720000000291721399882400686_">
		<use xlink:href="#SVGID_00000006678674624582816230000003778456474233156245_"  style="overflow:visible;"/>
	</clipPath>
	<g style="clip-path:url(#SVGID_00000057106166494161102720000000291721399882400686_);">
		<path class="st0" d="M188.1,186.2V471h47.7V155.2L188.1,186.2z M206.8,205.7h-10.7V195h10.7V205.7z M225.1,348.9h-10.7v-10.7h10.7
			V348.9z M225.1,283.3h-10.7v-10.7h10.7V283.3z"/>
	</g>
</g>
<g>
	<defs>
		<rect id="SVGID_00000085953978194842670670000013185262166699780480_" x="245.3" y="154.3" width="49.3" height="316.6"/>
	</defs>
	<clipPath id="SVGID_00000026135934971291442930000012680281683842147764_">
		<use xlink:href="#SVGID_00000085953978194842670670000013185262166699780480_"  style="overflow:visible;"/>
	</clipPath>
	<g style="clip-path:url(#SVGID_00000026135934971291442930000012680281683842147764_);">
		<path class="st0" d="M246.5,155.2V471h47.7V186.2L246.5,155.2z M269.3,318.1h-10.7v-10.7h10.7V318.1z M269.3,209.7h-10.7V199h10.7
			V209.7z M285.8,253h-10.7v-10.7h10.7V253z"/>
	</g>
</g>
<g>
	<defs>
		<rect id="SVGID_00000152230158281725732520000015935643865529700489_" x="338.7" y="278.3" width="48.3" height="192.6"/>
	</defs>
	<clipPath id="SVGID_00000016077430604983250300000014897094897635982735_">
		<use xlink:href="#SVGID_00000152230158281725732520000015935643865529700489_"  style="overflow:visible;"/>
	</clipPath>
	<g style="clip-path:url(#SVGID_00000016077430604983250300000014897094897635982735_);">
		<path class="st0" d="M339.3,278.6V471H387V296.7L339.3,278.6z M361,318.1h-10.7v-10.7H361V318.1z M377.7,348.9H367v-10.7h10.7
			V348.9z"/>
	</g>
</g>
<g>
	<defs>
		<rect id="SVGID_00000151529525185567230630000008956676129351767690_" x="304" y="278.3" width="25.3" height="192.6"/>
	</defs>
	<clipPath id="SVGID_00000173854536350012433330000017384185464480363174_">
		<use xlink:href="#SVGID_00000151529525185567230630000008956676129351767690_"  style="overflow:visible;"/>
	</clipPath>
	<g style="clip-path:url(#SVGID_00000173854536350012433330000017384185464480363174_);">
		<path class="st0" d="M328.6,278.6V471H305V287.6L328.6,278.6z"/>
	</g>
</g>
<g>
	<defs>
		<rect id="SVGID_00000139258488864021459280000011373072573983595707_" x="103.3" y="261" width="39.3" height="100.9"/>
	</defs>
	<clipPath id="SVGID_00000031904230872005391110000008326882393588195497_">
		<use xlink:href="#SVGID_00000139258488864021459280000011373072573983595707_"  style="overflow:visible;"/>
	</clipPath>
	<g style="clip-path:url(#SVGID_00000031904230872005391110000008326882393588195497_);">
		<path class="st0" d="M103.3,261h39.3v100.9h-39.3V261z"/>
	</g>
</g>
<g>
	<defs>
		<rect id="SVGID_00000034785542683956404310000018065277566671267734_" x="190.1" y="190.2" width="43.8" height="180.6"/>
	</defs>
	<clipPath id="SVGID_00000150820730087316433640000009918489603336799894_">
		<use xlink:href="#SVGID_00000034785542683956404310000018065277566671267734_"  style="overflow:visible;"/>
	</clipPath>
	<g style="clip-path:url(#SVGID_00000150820730087316433640000009918489603336799894_);">
		<path class="st0" d="M190.1,190.2h43.8v180.6h-43.8V190.2z"/>
	</g>
</g>
<g>
	<defs>
		<rect id="SVGID_00000083786306338052347430000013986730142260229310_" x="248.3" y="190.2" width="44.2" height="173.4"/>
	</defs>
	<clipPath id="SVGID_00000162324997384163244180000008424114656776627875_">
		<use xlink:href="#SVGID_00000083786306338052347430000013986730142260229310_"  style="overflow:visible;"/>
	</clipPath>
	<g style="clip-path:url(#SVGID_00000162324997384163244180000008424114656776627875_);">
		<path class="st0" d="M248.3,190.2h44.2v173.4h-44.2V190.2z"/>
	</g>
</g>
<g>
	<defs>
		<rect id="SVGID_00000104698507030094525050000013865754928203261330_" x="341.4" y="300" width="42.7" height="70.8"/>
	</defs>
	<clipPath id="SVGID_00000061464945204889541690000003664719685176712854_">
		<use xlink:href="#SVGID_00000104698507030094525050000013865754928203261330_"  style="overflow:visible;"/>
	</clipPath>
	<g style="clip-path:url(#SVGID_00000061464945204889541690000003664719685176712854_);">
		<path class="st0" d="M341.4,300h42.7v70.8h-42.7V300z"/>
	</g>
</g>
</svg>
